<svg id="visual" viewBox="0 0 900 600" width="900" height="600" xmlns="http://www.w3.org/2000/svg" xmlns:xlink="http://www.w3.org/1999/xlink" version="1.1"><path d="M718 0L512 0L512 33L725 33L725 67L659 67L659 100L683 100L683 133L534 133L534 167L543 167L543 200L684 200L684 233L600 233L600 267L723 267L723 300L536 300L536 333L430 333L430 367L679 367L679 400L467 400L467 433L431 433L431 467L701 467L701 500L622 500L622 533L425 533L425 567L628 567L628 600L0 600L0 567L0 567L0 533L0 533L0 500L0 500L0 467L0 467L0 433L0 433L0 400L0 400L0 367L0 367L0 333L0 333L0 300L0 300L0 267L0 267L0 233L0 233L0 200L0 200L0 167L0 167L0 133L0 133L0 100L0 100L0 67L0 67L0 33L0 33L0 0L0 0Z" fill="#2d2179"></path><path d="M280 0L402 0L402 33L285 33L285 67L236 67L236 100L227 100L227 133L304 133L304 167L162 167L162 200L438 200L438 233L420 233L420 267L218 267L218 300L277 300L277 333L394 333L394 367L303 367L303 400L255 400L255 433L156 433L156 467L344 467L344 500L256 500L256 533L390 533L390 567L161 567L161 600L0 600L0 567L0 567L0 533L0 533L0 500L0 500L0 467L0 467L0 433L0 433L0 400L0 400L0 367L0 367L0 333L0 333L0 300L0 300L0 267L0 267L0 233L0 233L0 200L0 200L0 167L0 167L0 133L0 133L0 100L0 100L0 67L0 67L0 33L0 33L0 0L0 0Z" fill="#15073f"></path></svg>