<svg id="visual" viewBox="0 0 2560 1440" width="2560" height="1440" xmlns="http://www.w3.org/2000/svg" xmlns:xlink="http://www.w3.org/1999/xlink" version="1.1"><path d="M0 491L233 548L465 303L698 491L931 476L1164 332L1396 563L1629 663L1862 563L2095 390L2327 275L2560 404L2560 0L2327 0L2095 0L1862 0L1629 0L1396 0L1164 0L931 0L698 0L465 0L233 0L0 0Z" fill="#291d6d"></path><path d="M0 735L233 735L465 563L698 764L931 735L1164 433L1396 735L1629 779L1862 779L2095 663L2327 404L2560 505L2560 402L2327 273L2095 388L1862 561L1629 661L1396 561L1164 330L931 474L698 489L465 301L233 546L0 489Z" fill="#221966"></path><path d="M0 966L233 937L465 1167L698 937L931 879L1164 851L1396 1153L1629 1110L1862 1009L2095 951L2327 1052L2560 1081L2560 503L2327 402L2095 661L1862 777L1629 777L1396 733L1164 431L931 733L698 762L465 561L233 733L0 733Z" fill="#1b155f"></path><path d="M0 1182L233 1067L465 1254L698 1139L931 1124L1164 1081L1396 1297L1629 1196L1862 1239L2095 1095L2327 1153L2560 1167L2560 1079L2327 1050L2095 949L1862 1007L1629 1108L1396 1151L1164 849L931 877L698 935L465 1165L233 935L0 964Z" fill="#141158"></path><path d="M0 1441L233 1441L465 1441L698 1441L931 1441L1164 1441L1396 1441L1629 1441L1862 1441L2095 1441L2327 1441L2560 1441L2560 1165L2327 1151L2095 1093L1862 1237L1629 1194L1396 1295L1164 1079L931 1122L698 1137L465 1252L233 1065L0 1180Z" fill="#0c0e51"></path></svg>